<svg width="800" height="738" viewBox="0 0 800 738" fill="none" xmlns="http://www.w3.org/2000/svg">
<path d="M796.131 490.873L688.344 330.815C684.127 324.551 677.069 320.798 669.519 320.798C661.969 320.798 654.911 324.551 650.694 330.815L542.908 490.873C538.223 497.83 537.756 506.805 541.698 514.212C545.641 521.616 553.345 526.245 561.733 526.245H594.403V691.98H517.692V321.996H550.362C558.75 321.996 566.455 317.37 570.397 309.963C574.336 302.555 573.872 293.582 569.188 286.624L461.4 126.565C457.183 120.301 450.125 116.548 442.575 116.548C435.025 116.548 427.967 120.301 423.75 126.565L315.964 286.624C311.28 293.582 310.812 302.557 314.755 309.963C318.697 317.368 326.402 321.996 334.789 321.996H367.459V691.979H290.748V594.37H323.419C335.95 594.37 346.112 584.207 346.112 571.676C346.112 559.145 335.95 548.982 323.419 548.982H268.055C255.523 548.982 245.361 559.145 245.361 571.676V691.979H185.909V571.676C185.909 559.145 175.747 548.982 163.216 548.982H150.494L215.637 452.243L247.092 498.954C254.095 509.351 268.2 512.098 278.594 505.102C288.991 498.101 291.742 483.996 284.742 473.601L234.464 398.94C230.247 392.676 223.189 388.923 215.639 388.923C208.089 388.923 201.031 392.676 196.814 398.94L89.0281 559.002C84.3438 565.96 83.8766 574.935 87.8187 582.341C91.7609 589.746 99.4656 594.374 107.853 594.374H140.523V691.984H45.3875V23.3227C45.3875 10.7914 35.225 0.628906 22.6938 0.628906C10.1625 0.628906 0 10.7914 0 23.3227V714.674C0 727.205 10.1625 737.368 22.6938 737.368H714.045H721.941C734.472 737.368 744.634 727.205 744.634 714.674C744.634 702.143 734.472 691.98 721.941 691.98H714.045H639.791V503.551C639.791 491.02 629.628 480.857 617.097 480.857H604.375L669.519 384.121L734.664 480.857H721.942C709.411 480.857 699.248 491.02 699.248 503.551V625.443C699.248 637.974 709.411 648.137 721.942 648.137C734.473 648.137 744.636 637.974 744.636 625.443V526.245H777.306C785.694 526.245 793.398 521.618 797.341 514.212C801.28 506.805 800.814 497.83 796.131 490.873ZM412.85 691.979V299.302C412.85 286.771 402.688 276.609 390.156 276.609H377.434L442.578 179.873L507.723 276.609H495C482.469 276.609 472.306 286.771 472.306 299.302V691.979H412.85Z" fill="#7FB751"/>
</svg>
