<svg width="800" height="554" viewBox="0 0 800 554" fill="none" xmlns="http://www.w3.org/2000/svg">
<path d="M603.491 0.365234L525.583 78.273L532.825 85.7949C527.666 89.9621 522.444 94.0277 517.375 97.6371C509.194 103.481 501.341 108.168 496.017 110.367C495.673 110.52 494.227 110.926 491.355 110.914C486.767 110.964 479.094 109.795 469.692 108.361C460.252 106.937 448.958 105.389 436.228 105.375C425.122 105.337 412.875 106.684 399.98 110.228C387.111 106.696 374.887 105.375 363.809 105.389C351.066 105.389 339.772 106.939 330.331 108.375C320.93 109.809 313.269 110.979 308.683 110.928C305.798 110.953 304.362 110.521 304.07 110.381C298.391 108.056 289.827 102.871 281.011 96.4558C276.45 93.1402 271.8 89.5059 267.188 85.7715L274.417 78.2746L196.509 0.366796L0 203.9L77.9078 281.807L100.713 258.189L151.05 302.121C152.459 310.545 155.116 318.498 158.178 326.046C160.172 330.85 162.358 335.473 164.595 339.818C159.728 347.875 157.073 357.073 157.098 366.398C157.086 375.648 159.627 385.1 164.848 393.498C172.789 406.267 185.508 414.296 199.241 416.837C199.319 425.921 201.834 435.184 206.953 443.417C216.673 459.045 233.495 467.709 250.647 467.682C251.308 467.682 251.981 467.581 252.641 467.556C253.505 474.823 255.894 482.065 259.984 488.646C269.705 504.273 286.538 512.939 303.664 512.912C305.367 512.912 307.058 512.734 308.772 512.568C309.584 519.112 311.758 525.642 315.43 531.537C324.286 545.768 339.608 553.67 355.195 553.632C363.606 553.645 372.22 551.357 379.869 546.606L403.222 532.073C407.822 535.045 412.648 537.662 417.717 539.796C427.158 543.773 437.359 546.212 447.969 546.225C459.606 546.276 471.892 543.087 482.463 535.654C489.348 530.853 495.18 524.27 499.956 516.509C500.694 516.534 501.291 516.662 502.053 516.675C506.894 516.675 512.205 515.95 517.466 514.311C522.763 512.698 528.023 510.282 533.639 507.07C547.03 499.523 555.059 488.418 558.961 478.903C559.825 476.82 560.447 474.862 561.006 472.97C564.247 471.942 567.347 470.682 570.153 469.057C580.508 463.098 587.255 454.04 591.409 444.943C595.577 435.756 597.406 426.215 597.431 417.043C597.431 416.14 597.317 415.264 597.278 414.375C604.05 411.606 610.134 407.756 615.319 403.22C620.63 398.568 625.089 393.157 628.405 386.982C631.709 380.834 633.92 373.795 633.933 366.084C633.945 361.065 632.916 355.779 630.667 350.825C629.942 349.25 628.914 347.801 627.973 346.34C631.927 339.262 635.952 331.286 639.255 322.671C641.733 316.153 643.817 309.318 645.011 302.139L697.495 256.337L722.092 281.811L800 203.9L603.491 0.365234ZM216.788 377.668L215.884 378.24C213.534 379.69 211.069 380.337 208.528 380.35C203.814 380.325 199.291 378.025 196.636 373.743C195.188 371.393 194.527 368.915 194.527 366.4C194.552 361.661 196.839 357.162 201.108 354.507L231.969 335.336C234.319 333.875 236.784 333.24 239.298 333.214C244.038 333.264 248.536 335.526 251.205 339.832L267.098 329.961L251.205 339.845C252.653 342.182 253.3 344.646 253.314 347.164C253.288 350.467 252.106 353.618 249.973 356.159L223.469 372.625C221.056 374.123 218.858 375.864 216.788 377.668ZM257.989 428.145C255.639 429.593 253.173 430.254 250.645 430.254C245.919 430.229 241.397 427.942 238.741 423.661C237.291 421.311 236.644 418.82 236.631 416.304C236.642 413.028 237.825 409.876 239.947 407.361L266.462 390.857C268.864 389.37 271.038 387.643 273.108 385.839L274.073 385.254C276.423 383.793 278.902 383.145 281.405 383.145C286.156 383.17 290.641 385.457 293.308 389.751C294.756 392.101 295.405 394.553 295.417 397.082C295.392 401.795 293.119 406.318 288.798 409L257.989 428.145ZM341.83 454.217L311.008 473.376C308.67 474.826 306.205 475.486 303.664 475.486C298.95 475.461 294.427 473.173 291.772 468.892C290.323 466.529 289.677 464.064 289.663 461.536C289.702 456.796 291.975 452.312 296.244 449.643L327.105 430.471C329.455 429.011 331.92 428.376 334.434 428.376C339.173 428.387 343.672 430.675 346.341 434.97C347.788 437.321 348.436 439.786 348.45 442.314C348.423 447.025 346.15 451.521 341.83 454.217ZM389.614 485.47C390.591 487.032 391.011 488.659 391.023 490.361C390.998 493.525 389.486 496.536 386.577 498.353L360.111 514.792C358.536 515.782 356.909 516.201 355.194 516.201C352.019 516.189 349.008 514.651 347.216 511.781C346.238 510.192 345.817 508.565 345.805 506.865C345.842 503.675 347.355 500.689 350.213 498.911H350.225L376.716 482.445C378.33 481.442 379.944 481.021 381.633 481.021C384.822 481.046 387.808 482.559 389.598 485.443L405.505 475.584L389.614 485.47ZM595.423 369.282C594.064 371.912 590.964 375.342 587.039 377.743C583.112 380.171 578.552 381.593 574.181 381.581C572.63 381.581 571.131 381.846 569.67 382.228C567.002 381.643 564.333 380.831 561.705 379.789C553.561 376.612 545.952 371.467 540.577 367.121C537.883 364.95 535.748 362.993 534.325 361.634L532.75 360.071L532.406 359.715L532.355 359.665H532.344C527.108 353.973 518.241 353.592 512.536 358.826C506.831 364.062 506.438 372.929 511.686 378.671C512.155 379.154 519.208 386.853 530.756 394.782C536.55 398.746 543.473 402.787 551.439 405.912C553.281 406.637 555.2 407.309 557.17 407.92C557.717 409.151 558.416 410.321 559.241 411.426L559.203 411.453C559.305 411.528 560.067 413.943 560.003 417.043C560.094 422.214 558.212 428.986 555.506 432.72C554.186 434.626 552.839 435.832 551.531 436.582C550.197 437.32 548.85 437.803 546.322 437.84L545.419 437.828C544.884 437.803 544.378 437.892 543.856 437.917C543.831 437.917 543.819 437.917 543.819 437.917C531.647 437.968 520.316 432.746 511.955 427.029C507.788 424.209 504.445 421.337 502.197 419.229C501.091 418.187 500.241 417.323 499.719 416.79L499.173 416.206L499.084 416.092H499.072C494.003 410.273 485.173 409.637 479.316 414.707C473.445 419.789 472.811 428.645 477.892 434.514L477.88 434.503C478.427 435.112 484.906 442.581 496.177 450.256C503.595 455.273 513.277 460.47 524.775 463.468C524.648 463.8 524.572 464.129 524.419 464.461C522.945 467.789 520.836 471.218 515.094 474.573C511.217 476.786 508.448 477.94 506.505 478.525C504.548 479.109 503.456 479.225 502.058 479.236C500.242 479.262 497.509 478.854 492.961 477.926C492.136 477.75 491.311 477.698 490.484 477.648C490.178 477.52 489.888 477.406 489.556 477.24C484.906 475.054 479.239 471.103 475.059 467.737C472.962 466.073 471.184 464.548 469.964 463.468L468.592 462.223L468.275 461.918L468.211 461.868C462.608 456.507 453.714 456.711 448.353 462.312C443.005 467.915 443.208 476.809 448.811 482.157C449.103 482.423 455.011 488.092 463.294 494.037C464.767 495.079 466.394 496.134 468.02 497.175C465.733 500.821 463.345 503.325 461.008 504.989C457.272 507.556 453.206 508.775 447.972 508.801C443.284 508.814 437.769 507.657 432.256 505.32C430.427 504.557 428.636 503.478 426.831 502.475C427.886 498.536 428.47 494.457 428.458 490.365C428.47 481.942 426.158 473.328 421.406 465.692C413.339 452.72 399.884 445.096 385.794 443.851C385.794 443.342 385.881 442.836 385.881 442.314C385.894 433.078 383.353 423.6 378.144 415.214V415.24C368.412 399.562 351.564 390.896 334.437 390.934C333.778 390.934 333.103 391.048 332.444 391.075C331.58 383.793 329.191 376.578 325.102 369.996H325.113C317.172 357.203 304.442 349.175 290.708 346.657C290.62 337.573 288.117 328.311 282.995 320.078H283.008C273.289 304.439 256.428 295.761 239.302 295.786C230.039 295.786 220.6 298.328 212.202 303.536L194.173 314.742C193.741 313.751 193.195 312.786 192.802 311.793C189.664 304.286 187.694 296.878 187.478 291.771L187.059 283.868L126.75 231.22L241.094 112.795C246.939 117.586 252.936 122.337 259.086 126.784C269.275 134.128 279.375 140.607 289.692 144.953C296.312 147.684 302.766 148.357 308.687 148.37C318.166 148.332 326.855 146.706 335.914 145.384C336.498 145.282 337.108 145.232 337.705 145.142C325.255 155.826 314.391 167.389 305.205 178.151C297.467 187.236 290.937 195.798 285.766 202.786C280.659 209.736 276.72 215.339 274.992 217.55C266.48 228.628 262.822 241.879 262.745 255.156C262.783 267.506 266.061 280.362 274.573 291.226C278.817 296.6 284.458 301.301 291.191 304.503C297.912 307.729 305.611 309.381 313.628 309.381C323.577 309.354 334.006 306.942 345.048 302.303C379.708 287.642 415.434 277.871 442.317 271.85C455.759 268.851 467.003 266.768 474.842 265.459C476.317 265.217 477.548 265.014 478.769 264.812L596.38 366.2L596.43 366.225L596.469 366.289C596.453 366.653 596.273 367.707 595.423 369.282ZM609.031 283.867L608.623 291.77C608.408 296.292 606.87 302.67 604.291 309.278C602.981 312.732 601.381 316.215 599.705 319.643L496.705 230.861C492.703 227.406 487.367 225.804 482.12 226.465C481.206 226.643 405.661 236.121 330.484 267.809C323.002 270.971 317.386 271.95 313.625 271.925C310.564 271.925 308.695 271.378 307.311 270.717C305.303 269.739 303.867 268.353 302.445 265.698C301.086 263.082 300.158 259.22 300.172 255.154C300.095 249.311 302.18 243.364 304.516 240.545C307.427 236.784 310.983 231.651 315.887 225.018C323.166 215.159 333.052 202.403 344.841 189.99C356.605 177.578 370.289 165.559 384.633 157.121C404.034 145.726 420.564 142.867 436.23 142.815C445.872 142.803 455.12 144.009 464.142 145.368C473.187 146.703 481.903 148.303 491.356 148.354C497.264 148.342 503.68 147.668 510.275 144.975L510.362 144.95C520.68 140.604 530.78 134.125 540.969 126.781C547.081 122.359 553.103 117.582 558.922 112.806L671.477 229.375L609.031 283.867Z" fill="#7FB751"/>
</svg>
