<svg width="686" height="550" viewBox="0 0 686 550" fill="none" xmlns="http://www.w3.org/2000/svg">
<path d="M77.5384 220.434C88.743 183.957 109.769 151.266 138.315 125.943C122.787 113.521 138.315 36.3309 138.315 36.3309C138.315 36.3309 200.422 63.8309 211.512 76.6993C211.512 76.6993 259.423 18.5859 398.277 18.5859C537.13 18.5859 668 125.943 668 269.233C668 412.523 564.192 458.216 564.192 458.216C558.781 483.497 550.444 508.061 539.35 531.413H484.333C475.557 517.912 467.706 503.832 460.833 489.269C460.833 489.269 416.915 494.593 385.417 494.593C363.22 494.141 341.104 491.766 319.317 487.494C317.438 503.098 312.136 518.095 303.79 531.413H243.897C225.265 515.443 215.948 465.314 215.948 465.314C215.948 465.314 65.1168 396.999 33.1751 356.183C15.8751 323.798 18.0917 251.931 18.0917 251.931C34.8635 236.487 55.3406 225.637 77.5384 220.434Z" stroke="#7FB751" stroke-width="35.67" stroke-linecap="round" stroke-linejoin="round"/>
<path d="M268.74 115.649C304.28 90.0969 347.468 77.4222 391.18 79.7157C438.943 78.9276 485.663 93.7226 524.267 121.861" stroke="#7FB751" stroke-width="27.67" stroke-linecap="round" stroke-linejoin="round"/>
<path d="M157.5 251C166.613 251 174 243.613 174 234.5C174 225.387 166.613 218 157.5 218C148.387 218 141 225.387 141 234.5C141 243.613 148.387 251 157.5 251Z" fill="#7FB751"/>
</svg>
