<svg width="800" height="800" viewBox="0 0 800 800" fill="none" xmlns="http://www.w3.org/2000/svg">
<path d="M258.334 339.387L345.659 406.748C349.02 433.904 371.913 455.023 400 455.023C430.395 455.023 455.022 430.382 455.022 400.001C455.022 398.823 454.75 397.732 454.675 396.566L582.65 245.166C591.591 235.146 591.741 220.712 583.034 212.973C574.317 205.21 560.019 207.071 551.103 217.09L425.345 351.44C417.731 347.446 409.188 344.979 399.998 344.979C390.152 344.979 381.052 347.77 373.064 352.296L290.836 295.041C280.233 287.229 264.334 290.849 255.344 303.102C246.38 315.327 247.694 331.585 258.334 339.387Z" fill="#7FB751"/>
<path d="M400 0C382.466 0 368.255 14.2125 368.255 31.7469C368.255 49.2812 382.467 63.4922 400 63.4922C493.031 63.5047 576.947 101.105 637.947 162.053C698.897 223.041 736.497 306.969 736.508 400C736.497 493.031 698.897 576.947 637.947 637.947C576.947 698.897 493.031 736.495 400 736.508C306.97 736.495 223.041 698.895 162.055 637.947C101.105 576.947 63.5047 493.031 63.4922 400C63.5047 332.403 83.4453 269.631 117.709 216.953L147.173 238.975C150.361 241.356 154.577 241.952 158.309 240.538C162.03 239.125 164.808 235.938 165.627 232.019L185.455 138.233C188.989 132.167 190.502 125.198 189.645 118.353L198.611 75.9672C199.566 71.5047 197.817 66.9141 194.183 64.1734C190.523 61.4578 185.627 61.0859 181.608 63.2687L41.3172 139.113C37.7953 141.034 35.5016 144.581 35.2172 148.561C34.9188 152.53 36.6797 156.398 39.8797 158.792L66.7141 178.844C24.6031 242.213 -0.0109339 318.291 3.6436e-06 400C0.0250036 620.931 179.069 799.975 400 800C620.933 799.975 799.977 620.931 800 400C799.977 179.069 620.933 0.025 400 0Z" fill="#7FB751"/>
</svg>
