<svg width="650" height="717" viewBox="0 0 650 717" fill="none" xmlns="http://www.w3.org/2000/svg">
<path d="M491.667 358.335C491.667 380.221 487.357 401.895 478.98 422.115C470.603 442.335 458.327 460.708 442.85 476.185C427.373 491.661 409 503.938 388.78 512.315C368.56 520.691 346.887 525.001 325 525.001C303.113 525.001 281.44 520.691 261.22 512.315C240.998 503.938 222.625 491.661 207.149 476.185C191.672 460.708 179.396 442.335 171.02 422.115C162.644 401.895 158.333 380.221 158.333 358.335C158.333 336.448 162.644 314.775 171.02 294.555C179.396 274.333 191.672 255.96 207.149 240.484C222.625 225.007 240.999 212.731 261.22 204.355C281.44 195.979 303.113 191.668 325 191.668C346.887 191.668 368.56 195.979 388.78 204.355C409 212.731 427.373 225.007 442.85 240.484C458.327 255.96 470.603 274.333 478.98 294.555C487.357 314.775 491.667 336.448 491.667 358.335Z" stroke="#7FB751" stroke-width="50"/>
<path d="M386.593 422.115C389.943 401.895 391.667 380.221 391.667 358.335C391.667 336.448 389.943 314.775 386.593 294.555C383.24 274.333 378.33 255.96 372.14 240.484C365.95 225.007 358.6 212.731 350.513 204.355C342.423 195.979 333.753 191.668 325 191.668C316.247 191.668 307.577 195.979 299.487 204.355C291.4 212.731 284.05 225.007 277.86 240.484C271.67 255.96 266.76 274.333 263.407 294.555C260.057 314.775 258.333 336.448 258.333 358.335C258.333 380.221 260.057 401.895 263.407 422.115C266.757 442.335 271.67 460.708 277.86 476.185C284.05 491.661 291.4 503.938 299.487 512.315C307.577 520.691 316.247 525.001 325 525.001C333.753 525.001 342.423 520.691 350.513 512.315C358.6 503.938 365.95 491.661 372.14 476.185C378.33 460.708 383.24 442.335 386.593 422.115Z" stroke="#7FB751" stroke-width="50"/>
<path d="M158.333 358.334H491.667" stroke="#7FB751" stroke-width="50" stroke-linecap="round"/>
<path d="M25 305.557C25 198.969 25 145.676 37.584 127.747C50.1677 109.818 100.277 92.6653 200.497 58.3597L219.591 51.824C271.833 33.9413 297.953 25 325 25C352.047 25 378.167 33.9413 430.41 51.824L449.503 58.3597C549.723 92.6653 599.833 109.818 612.417 127.747C625 145.676 625 198.969 625 305.557C625 321.653 625 339.113 625 358.047C625 441.543 597.107 505.947 558.333 555.137M31.428 425C60.0087 568.28 177.547 642.097 254.952 675.91C279 686.413 291.023 691.667 325 691.667C358.977 691.667 371 686.413 395.047 675.91C414.32 667.49 436.08 656.593 458.333 642.76" stroke="#7FB751" stroke-width="50" stroke-linecap="round"/>
</svg>
