<svg width="526" height="800" viewBox="0 0 526 800" fill="none" xmlns="http://www.w3.org/2000/svg">
<path d="M516.5 318.675L459.2 268.55C445.525 256.6 427.975 250 409.825 250H313V225H438C465.625 225 488 202.625 488 175V100C488 72.375 465.625 50 438 50H313V25C313 11.2 301.8 0 288 0H238C224.2 0 213 11.2 213 25V50H116.175C98.025 50 80.475 56.6 66.8 68.55L9.5 118.675C-1.875 128.625 -1.875 146.35 9.5 156.3L66.8 206.425C80.475 218.4 98.025 225 116.175 225H213V250H88C60.375 250 38 272.375 38 300V375C38 402.625 60.375 425 88 425H213V775C213 788.8 224.2 800 238 800H288C301.8 800 313 788.8 313 775V425H409.825C428 425 445.55 418.4 459.225 406.45L516.525 356.325C527.875 346.35 527.875 328.65 516.5 318.675ZM238 25H288V50H238V25ZM83.25 187.625L25.975 137.5L83.25 87.375C92.375 79.4 104.075 75 116.175 75H438C451.775 75 463 86.225 463 100V175C463 188.775 451.775 200 438 200H116.175C104.075 200 92.375 195.6 83.25 187.625ZM238 225H288V250H238V225ZM288 775H238V425H288V775ZM442.75 387.625C433.625 395.6 421.925 400 409.825 400H88C74.225 400 63 388.775 63 375V300C63 286.225 74.225 275 88 275H409.825C421.95 275 433.625 279.4 442.75 287.375L500.05 337.5L442.75 387.625ZM363 337.5C363 344.4 357.4 350 350.5 350H175.5C168.6 350 163 344.4 163 337.5C163 330.6 168.6 325 175.5 325H350.5C357.4 325 363 330.6 363 337.5ZM363 137.5C363 144.4 357.4 150 350.5 150H175.5C168.6 150 163 144.4 163 137.5C163 130.6 168.6 125 175.5 125H350.5C357.4 125 363 130.6 363 137.5Z" fill="#7FB751"/>
</svg>
