<svg width="700" height="700" viewBox="0 0 700 700" fill="none" xmlns="http://www.w3.org/2000/svg">
<path d="M650 100H400V50C400 36.7392 394.732 24.0215 385.355 14.6447C375.979 5.26784 363.261 0 350 0H50C36.7392 0 24.0215 5.26784 14.6447 14.6447C5.26784 24.0215 0 36.7392 0 50V550C0 563.261 5.26784 575.979 14.6447 585.355C24.0215 594.732 36.7392 600 50 600H300V650C300 663.261 305.268 675.979 314.645 685.355C324.021 694.732 336.739 700 350 700H650C663.261 700 675.979 694.732 685.355 685.355C694.732 675.979 700 663.261 700 650V150C700 136.739 694.732 124.021 685.355 114.645C675.979 105.268 663.261 100 650 100ZM50 325H204.25L139.75 389.75L175 425L300 300L175 175L139.75 210.25L204.25 275H50V50H350V550H50V325ZM350 650V600C363.261 600 375.979 594.732 385.355 585.355C394.732 575.979 400 563.261 400 550V150H650V375H495.75L560.25 310.25L525 275L400 400L525 525L560.25 489.75L495.75 425H650V650H350Z" fill="#7FB751"/>
</svg>
